<?xml version="1.0" encoding="UTF-8" standalone="no"?>
<svg
   xmlns:dc="http://purl.org/dc/elements/1.1/"
   xmlns:cc="http://creativecommons.org/ns#"
   xmlns:rdf="http://www.w3.org/1999/02/22-rdf-syntax-ns#"
   xmlns:svg="http://www.w3.org/2000/svg"
   xmlns="http://www.w3.org/2000/svg"
   xmlns:sodipodi="http://sodipodi.sourceforge.net/DTD/sodipodi-0.dtd"
   xmlns:inkscape="http://www.inkscape.org/namespaces/inkscape"
   sodipodi:docname="drawing.svg"
   inkscape:version="1.0 (4035a4fb49, 2020-05-01)"
   id="svg8"
   version="1.1"
   viewBox="0 0 491.76614 240.1526"
   height="240.1526mm"
   width="491.76614mm">
  <defs
     id="defs2">
    <clipPath
       id="clipPath36"
       clipPathUnits="userSpaceOnUse">
      <path
         id="path34"
         d="m 6414,11586.8 c -2942.47,171.3 -5302.22,3284.3 -3736.46,5091 642.03,740.8 1397.22,519.8 2189.62,298.8 706.35,-196.9 1442.28,-393.9 2154,90.4 2323.32,1580.8 6087.34,1868.2 6585.54,-124.6 498.2,-1992.7 -1152.1,-5106.5 -2382,-5293.3 -1229.94,-186.8 -4810.7,-62.3 -4810.7,-62.3" />
    </clipPath>
  </defs>
  <sodipodi:namedview
     inkscape:window-maximized="1"
     inkscape:window-y="-9"
     inkscape:window-x="2484"
     inkscape:window-height="1051"
     inkscape:window-width="1827"
     showgrid="false"
     inkscape:document-rotation="0"
     inkscape:current-layer="g146"
     inkscape:document-units="mm"
     inkscape:cy="573.2017"
     inkscape:cx="1055.5651"
     inkscape:zoom="0.35"
     inkscape:pageshadow="2"
     inkscape:pageopacity="0.0"
     borderopacity="1.0"
     bordercolor="#666666"
     pagecolor="#ffffff"
     id="base" />
  <metadata
     id="metadata5">
    <rdf:RDF>
      <cc:Work
         rdf:about="">
        <dc:format>image/svg+xml</dc:format>
        <dc:type
           rdf:resource="http://purl.org/dc/dcmitype/StillImage" />
        <dc:title></dc:title>
      </cc:Work>
    </rdf:RDF>
  </metadata>
  <g
     transform="translate(114.5636,-21.324048)"
     id="layer1"
     inkscape:groupmode="layer"
     inkscape:label="Layer 1">
    <g
       id="g12"
       transform="matrix(0.03527778,0,0,-0.03527778,-463.90276,591.65872)">
      <g
         id="g146"
         transform="matrix(1.89309,0,0,1.89309,-6149.9996,-2099.9999)" />
      <g
         id="g150"
         transform="matrix(1.51534,0,0,1.51534,-6149.9996,-2099.9999)">
        <path
           d="m 15637.4,9640.06 c -192.4,-390.45 -433.5,-1457.37 -499.3,-1515.83 -65.8,-58.46 -445.8,-285 -511.6,-394.62 -65.7,-109.62 -36.5,-73.08 -7.2,-80.39 29.2,-7.3 1680.7,-14.61 1680.7,-14.61 0,0 -190,1132.7 -211.9,1140 -21.9,7.31 -450.7,865.45 -450.7,865.45"
           style="fill:#a2dff2;fill-opacity:1;fill-rule:nonzero;stroke:none"
           id="path152" />
      </g>
      <g
         id="g154"
         transform="matrix(1.50265,0,0,1.50265,-6149.9996,-2099.9999)">
        <path
           d="m 15493.6,7704.44 c 306,-2.14 628.7,-3.82 806.4,-4.69 l -243.3,1454.93 c -129.7,251.57 -287.2,566.81 -287.2,566.81 -24.5,-49.64 -49.7,-110.13 -75.3,-178.05 -25.2,-1092.77 132.2,-1399.06 13.9,-1593.78 -92.2,-151.94 -176.4,-219.91 -214.5,-245.22"
           style="fill:#96cfe0;fill-opacity:1;fill-rule:nonzero;stroke:none"
           id="path156" />
      </g>
      <g
         id="g158"
         transform="matrix(1.7528,0,0,1.7528,-6149.9996,-2099.9999)">
        <path
           d="M 16247.1,6537.82 H 9390.93 c -29.21,0 -52.89,23.69 -52.89,52.89 0,29.21 23.68,52.89 52.89,52.89 h 6856.17 c 29.2,0 52.9,-23.68 52.9,-52.89 0,-29.2 -23.7,-52.89 -52.9,-52.89"
           style="fill:#2e5b9a;fill-opacity:1;fill-rule:nonzero;stroke:none"
           id="path160" />
      </g>
      <g
         id="g162"
         transform="matrix(1.63879,0,0,1.63879,-6149.9996,-2099.9999)">
        <path
           d="m 15396,9349.67 c 253.6,-234.13 818.3,-456.16 818.3,-456.16 0,0 85.7,-792.56 27.2,-1241.32 -58.5,-448.76 -26,-539.81 -26,-539.81 h -1164.2 c 0,0 -156.2,216.82 -442.2,891.01 -182.1,429.25 -149.6,910.53 -149.6,910.53 l 708.9,318.69 227.6,117.06"
           style="fill:#a2dff2;fill-opacity:1;fill-rule:nonzero;stroke:none"
           id="path164" />
      </g>
      <g
         id="g166"
         transform="matrix(1.63775,0,0,1.63775,-6149.9996,-2099.9999)">
        <path
           d="m 15060.9,7116.88 h 1164.9 c 0,0 -32.6,91.11 26,540.16 48.2,369.75 -1.5,972.74 -20.5,1174.16 l -106,45.4 c -265.9,-76.64 -419.2,-473.33 -464.3,-861.02 -30.2,-259.39 -459.9,-514.75 -741,-655.33 92.4,-176.06 140.9,-243.37 140.9,-243.37"
           style="fill:#96cfe0;fill-opacity:1;fill-rule:nonzero;stroke:none"
           id="path168" />
      </g>
      <g
         id="g170"
         transform="matrix(1.50821,0,0,1.50821,-6149.9996,-2099.9999)">
        <path
           d="m 16044.2,11043 c -152.4,-339.6 30.6,-654.2 25,-640.9 -5.5,13.2 230.8,573.4 230.8,573.4 l -255.8,67.5"
           style="fill:#2e5b9a;fill-opacity:1;fill-rule:nonzero;stroke:none"
           id="path172" />
      </g>
      <g
         id="g174"
         transform="matrix(1.55641,0,0,1.55641,-6149.9996,-2099.9999)">
        <path
           d="m 16107.3,10457.7 187.4,-684.95 c 5.3,-19.33 0.8,-39.93 -11.8,-55.48 -44,-54.15 -106.6,-165.52 -232.8,-201.25 -24.6,-6.94 -54.8,-8.8 -79.3,-8.89 -25.7,-0.1 -47.9,18.02 -52.8,43.29 l -125.5,649.68 314.8,257.6"
           style="fill:#f09959;fill-opacity:1;fill-rule:nonzero;stroke:none"
           id="path176" />
      </g>
      <g
         id="g178"
         transform="matrix(1.53972,0,0,1.53972,-6149.9996,-2099.9999)">
        <path
           d="m 16245.8,10513.2 -69.3,-28.4 -212.8,-174.1 114.2,-582.25 c 193.8,120.81 222.1,202.34 167.9,784.75"
           style="fill:#e38540;fill-opacity:1;fill-rule:nonzero;stroke:none"
           id="path180" />
      </g>
      <g
         id="g182"
         transform="matrix(1.54132,0,0,1.54132,-6149.9996,-2099.9999)">
        <path
           d="m 16258.1,10254.1 c -41.9,-227.5 -212.2,-381.37 -380.3,-343.66 -168.1,37.7 -248.3,184.96 -228.6,480.26 15.5,231.6 129.7,483.4 297.9,445.7 168.1,-37.7 352.9,-354.7 311,-582.3"
           style="fill:#f09959;fill-opacity:1;fill-rule:nonzero;stroke:none"
           id="path184" />
      </g>
      <g
         id="g186"
         transform="matrix(1.67183,0,0,1.67183,-6149.9996,-2099.9999)">
        <path
           d="m 15893.7,8717.7 c 230.9,-52.13 273.8,-521.09 348.9,-1015.68 8.6,-56.93 53,-538.76 53,-538.76 0,0 4.4,-88.32 -83.9,-132.47 -75.5,-37.73 -106,-66.25 -543.2,-70.66 -419.9,-4.24 -961.2,13.25 -961.2,13.25 0,0 -4.8,156.23 38.2,232.57 64.8,114.82 728.7,279.68 790.5,288.51 8.8,123.65 -61,571.03 35.3,874.37 66.3,208.67 137.5,317.96 226.7,346.52 29.8,9.53 61.5,10.08 95.7,2.35"
           style="fill:#a2dff2;fill-opacity:1;fill-rule:nonzero;stroke:none"
           id="path188" />
      </g>
      <g
         id="g190"
         transform="matrix(1.67772,0,0,1.67772,-6149.9996,-2099.9999)">
        <path
           d="m 14892.3,6939.41 c 206.2,-3.1 489.3,-6.06 721.2,-3.72 435.6,4.4 466.1,32.82 541.2,70.42 88.1,43.99 92.5,118.81 92.5,118.81 0,0 -44.5,510.89 -52.8,567.66 -48.4,330.04 -100.7,707.7 -222.5,890 114.5,-335.38 132.9,-618.36 134.9,-739.22 1.1,-61.21 -4.6,-145.03 -22.4,-203.59 -19.8,-64.9 -70.4,-105.61 -149.7,-83.6 -158.4,44 -356.4,-48.41 -356.4,-48.41 0,0 149.6,52.81 290.4,4.4 140.8,-48.4 431.3,-369.64 114.4,-488.45 -96.9,-36.36 -677.7,-66.01 -1090.8,-84.3"
           style="fill:#96cfe0;fill-opacity:1;fill-rule:nonzero;stroke:none"
           id="path192" />
      </g>
      <g
         id="g194"
         transform="matrix(1.54682,0,0,1.54682,-6149.9996,-2099.9999)">
        <path
           d="m 15975.5,7772.42 c 0,0 63.6,108.18 194,108.18 130.5,0 121,-213.18 101.9,-283.18 -19.1,-70.01 -95.5,-73.19 -95.5,-73.19 l -280,12.73 79.6,235.46"
           style="fill:#96cfe0;fill-opacity:1;fill-rule:nonzero;stroke:none"
           id="path196" />
      </g>
      <g
         id="g198"
         transform="matrix(1.49368,0,0,1.49368,-6149.9996,-2099.9999)">
        <path
           d="m 16249.9,7741.61 h -1828 c -27.6,0 -50.2,22.55 -50.2,50.12 v 14.4 c 0,27.57 22.6,50.13 50.2,50.13 h 1828 c 27.5,0 50.1,-22.56 50.1,-50.13 v -14.4 c 0,-27.57 -22.6,-50.12 -50.1,-50.12"
           style="fill:#75a1de;fill-opacity:1;fill-rule:nonzero;stroke:none"
           id="path200" />
      </g>
      <g
         id="g202"
         transform="matrix(1.54353,0,0,1.54353,-6149.9996,-2099.9999)">
        <path
           d="m 15974.4,7776.22 c -274.2,98.85 -346.2,61.64 -408.1,79.72 -153.1,44.64 -191.4,6.38 -290.2,-264.66 -19.7,-54.01 38.2,-57.4 95.6,-57.4 57.4,0 127.6,111.6 149.9,124.36 22.3,12.76 82.9,19.13 82.9,19.13 0,0 -19.1,0 -47.8,-57.39 -28.7,-57.4 -63.8,-79.72 -19.1,-79.72 44.6,0 51,73.34 133.9,57.4 82.9,-15.95 51,-57.4 258.2,-54.21 207.4,3.19 363.8,0 360.4,124.36 -3.2,117.98 9.9,176.98 -102.1,197.69 -86.1,15.95 -213.6,-89.28 -213.6,-89.28"
           style="fill:#f09959;fill-opacity:1;fill-rule:nonzero;stroke:none"
           id="path204" />
      </g>
      <g
         id="g206"
         transform="matrix(1.53856,0,0,1.53856,-6149.9996,-2099.9999)">
        <path
           d="m 16029.7,7801.37 c 183.9,20.79 129.9,-208.34 110.7,-227.53 -19.1,-19.19 102.5,-6.74 102.5,-6.74 0,0 57.1,91.91 9.1,197.48 -48,105.57 -143.9,110.37 -143.9,110.37 l -81.6,-44.79 3.2,-28.79"
           style="fill:#a86b48;fill-opacity:1;fill-rule:nonzero;stroke:none"
           id="path208" />
      </g>
      <g
         id="g210"
         transform="matrix(1.53139,0,0,1.53139,-6149.9996,-2099.9999)">
        <path
           d="m 16297.7,7857.91 c -2.5,-28.53 -50.9,-47.76 -108.3,-42.97 -57.5,4.8 -102.1,31.81 -99.7,60.35 2.4,28.52 50.8,47.77 108.3,42.97 57.4,-4.8 102,-31.82 99.7,-60.35"
           style="fill:#2e5b9a;fill-opacity:1;fill-rule:nonzero;stroke:none"
           id="path212" />
      </g>
      <g
         id="g214"
         transform="matrix(1.52999,0,0,1.52999,-6149.9996,-2099.9999)">
        <path
           d="m 16297.9,7879.32 c -2.1,-25.5 -45.5,-42.71 -96.9,-38.43 -51.3,4.3 -91.2,28.46 -89,53.97 2.1,25.52 45.5,42.72 96.8,38.43 51.3,-4.29 91.2,-28.45 89.1,-53.97"
           style="fill:#3e6bab;fill-opacity:1;fill-rule:nonzero;stroke:none"
           id="path216" />
      </g>
      <g
         id="g218"
         transform="matrix(1.52692,0,0,1.52692,-6149.9996,-2099.9999)">
        <path
           d="m 16298.5,7907 c -1.5,-18.4 -32.8,-30.81 -69.8,-27.72 -37.1,3.1 -65.8,20.53 -64.3,38.93 1.5,18.4 32.8,30.81 69.8,27.72 37.1,-3.09 65.8,-20.53 64.3,-38.93"
           style="fill:#f0ceb4;fill-opacity:1;fill-rule:nonzero;stroke:none"
           id="path220" />
      </g>
      <g
         id="g222"
         transform="matrix(1.33561,0,0,1.33561,-6149.9996,-2099.9999)">
        <path
           d="m 16053.9,9062.76 h -2059.4 c -108.4,0 -201.2,78.44 -220.8,186.47 l -268.6,1482.57 c -25.3,139.9 80.6,268.7 220.8,268.7 h 2059.4 c 108.4,0 201.2,-78.4 220.8,-186.4 l 268.6,-1482.64 c 25.3,-139.83 -80.6,-268.7 -220.8,-268.7"
           style="fill:#75a1de;fill-opacity:1;fill-rule:nonzero;stroke:none"
           id="path224" />
      </g>
      <g
         id="g226"
         transform="matrix(1.32545,0,0,1.32545,-6149.9996,-2099.9999)">
        <path
           d="m 16274,9397.43 -276.2,1463.07 c -20.2,106.6 -115.7,184 -227.1,184 h -2108.9 c -44.3,-51.4 -66.5,-121.8 -53,-195.1 L 13889,9324.11 c 20.4,-111.14 117.3,-191.85 230.3,-191.85 H 16047 c 144.1,0 253,127.19 227,265.17"
           style="fill:#a8ceff;fill-opacity:1;fill-rule:nonzero;stroke:none"
           id="path228" />
      </g>
      <g
         id="g230"
         transform="matrix(1.29655,0,0,1.29655,-6149.9996,-2099.9999)">
        <path
           d="m 16125.2,9131.31 h -402.7 c -71.8,0 -130.1,63.97 -130.1,142.88 v 736.31 c 0,125.6 -92.7,227.4 -207,227.4 h -210.3 c -114.4,0 -207,-101.8 -207,-227.4 v -824.6 c 0,-141.01 104.4,-255.07 232.8,-254.19 l 1099.1,7.55 c 0,106.07 -78.3,192.05 -174.8,192.05"
           style="fill:#75a1de;fill-opacity:1;fill-rule:nonzero;stroke:none"
           id="path232" />
      </g>
      <g
         id="g234"
         transform="matrix(1.29566,0,0,1.29566,-6149.9996,-2099.9999)">
        <path
           d="m 14994.3,10000.9 v -812.58 c 0,-132.28 102.6,-240.42 232.3,-249.75 l 1073.4,6.71 c -0.1,17.58 -84.7,49.63 -189.2,49.63 h -436 c -77.7,0 -140.7,63.02 -140.7,140.78 v 865.21 c 0,123.7 -100.4,224 -224.1,224 h -91.5 c -123.8,0 -224.2,-100.3 -224.2,-224"
           style="fill:#a8ceff;fill-opacity:1;fill-rule:nonzero;stroke:none"
           id="path236" />
      </g>
      <g
         id="g238"
         transform="matrix(1.41154,0,0,1.41154,-6149.9996,-2099.9999)">
        <path
           d="m 15825.7,8473.36 c 148.9,82.72 330.9,55.15 397.1,-27.58 66.1,-82.72 77.2,-137.86 -71.7,-137.86 -148.9,0 -446.7,-11.03 -496.4,-5.52 -49.5,5.52 171,170.96 171,170.96"
           style="fill:#f09959;fill-opacity:1;fill-rule:nonzero;stroke:none"
           id="path240" />
      </g>
      <g
         id="g242"
         transform="matrix(1.43648,0,0,1.43648,-6149.9996,-2099.9999)">
        <path
           d="m 15767.7,8375.02 c 157.1,37.94 264.6,-53.51 395.6,-140.89 113.8,-75.87 136.7,-149.62 10.8,-86.71 -184.2,92.13 -292.6,102.96 -292.6,102.96 l -113.8,124.64"
           style="fill:#f09959;fill-opacity:1;fill-rule:nonzero;stroke:none"
           id="path244" />
      </g>
      <g
         id="g246"
         transform="matrix(1.37696,0,0,1.37696,-6149.9996,-2099.9999)">
        <path
           d="m 16300,8686.69 c -82.8,0 -155,26.4 -213.5,21.54 -58.5,-4.88 -243.5,-194.82 -214.3,-209.42 2.1,-1.06 4.3,-2.02 6.8,-2.92 43.9,-16.16 93.5,1.75 118.3,41.49 26.2,42.04 68.8,90.95 118.4,73.44 82.8,-29.22 169.7,-26.4 169.7,-26.4 l 14.6,102.27"
           style="fill:#f09959;fill-opacity:1;fill-rule:nonzero;stroke:none"
           id="path248" />
      </g>
      <g
         id="g250"
         transform="matrix(1.39912,0,0,1.39912,-6149.9996,-2099.9999)">
        <path
           d="m 15993.9,8348.27 c -83.4,33.38 50.2,311.56 94.7,311.56 44.5,0 211.4,-133.52 211.4,-133.52 0,0 -39.2,-22.16 -172.5,22.25 -33.3,11.13 -61.1,-178.04 -100.1,-200.29 -39,-22.26 -33.5,0 -33.5,0"
           style="fill:#f7a96f;fill-opacity:1;fill-rule:nonzero;stroke:none"
           id="path252" />
      </g>
      <g
         id="g254"
         transform="matrix(1.56528,0,0,1.56528,-6149.9996,-2099.9999)">
        <path
           d="m 15409.6,10100.7 c -7,-273.8 86.3,-320.1 151.6,-357.29 65.2,-37.18 346.3,24.24 387.6,91.96 105.6,173.23 16.7,334.83 40.3,332.33 23.7,-2.4 45.3,-69.9 106.8,-157.4 5.7,-8.1 45.7,-62.23 47.8,-44.24 28.6,245.24 156.3,321.34 125.9,569.34 -22.4,182.8 -138.5,168.3 -138.5,168.3 0,0 -74.8,153 -307.9,135.6 -156.1,-11.6 -295.3,-72.5 -456.3,-113.9 -161,-41.4 190.4,-406.2 399.2,-273 208.8,133.3 105.7,-160.3 138.6,-183 33,-22.8 15.9,-3.1 31,-153.3 15.1,-150.23 -175.7,-248.33 -230.4,-261.19 -174.8,-41.12 -204.1,-12.27 -242.3,53.57 -33.3,57.13 -53.4,192.22 -53.4,192.22"
           style="fill:#2e5b9a;fill-opacity:1;fill-rule:nonzero;stroke:none"
           id="path256" />
      </g>
      <g
         id="g258"
         transform="matrix(1.5512,0,0,1.5512,-6149.9996,-2099.9999)">
        <path
           d="m 16279.8,10277.9 c -20.3,-69.6 -69.8,-114.6 -110.5,-100.4 -40.8,14.1 -42,70.7 -37.2,151.7 4.3,72.9 69.7,114.6 110.5,100.4 40.7,-14.1 57.4,-82 37.2,-151.7"
           style="fill:#f09959;fill-opacity:1;fill-rule:nonzero;stroke:none"
           id="path260" />
      </g>
      <g
         id="g262"
         transform="matrix(1.18519,0,0,1.18519,-6149.9996,-2099.9999)">
        <path
           d="m 16261.1,13696.6 h -1971.3 c -21.5,0 -38.9,17.4 -38.9,38.9 v 848.3 c 0,21.5 17.4,38.9 38.9,38.9 h 1971.3 c 21.5,0 38.9,-17.4 38.9,-38.9 v -848.3 c 0,-21.5 -17.4,-38.9 -38.9,-38.9"
           style="fill:#b7e1ff;fill-opacity:1;fill-rule:nonzero;stroke:none"
           id="path264" />
      </g>
      <g
         id="g266"
         transform="matrix(1.18112,0,0,1.18112,-6149.9996,-2099.9999)">
        <path
           d="m 16268.5,13787.5 h -1880.8 c -17.3,0 -31.5,14.1 -31.5,31.5 v 578.5 c 0,17.4 14.2,31.5 31.5,31.5 h 1880.8 c 17.4,0 31.5,-14.1 31.5,-31.5 V 13819 c 0,-17.4 -14.1,-31.5 -31.5,-31.5"
           style="fill:#ffffff;fill-opacity:1;fill-rule:nonzero;stroke:none"
           id="path268" />
      </g>
      <g
         id="g270"
         transform="matrix(1.05827,0,0,1.05827,-6149.9996,-2099.9999)">
        <path
           d="m 16125,16219.1 h -50.9 c -10.8,0 -19.6,8.7 -19.6,19.5 v 41.9 c 0,10.8 8.8,19.5 19.6,19.5 h 50.9 c 10.7,0 19.5,-8.7 19.5,-19.5 v -41.9 c 0,-10.8 -8.8,-19.5 -19.5,-19.5"
           style="fill:#ffffff;fill-opacity:1;fill-rule:nonzero;stroke:none"
           id="path272" />
      </g>
      <g
         id="g274"
         transform="matrix(1.05879,0,0,1.05879,-6149.9996,-2099.9999)">
        <path
           d="m 16280.4,16211.2 h -50.9 c -10.6,0 -19.4,8.7 -19.4,19.4 v 42 c 0,10.7 8.8,19.4 19.4,19.4 h 50.9 c 10.8,0 19.6,-8.7 19.6,-19.4 v -42 c 0,-10.7 -8.8,-19.4 -19.6,-19.4"
           style="fill:#ffffff;fill-opacity:1;fill-rule:nonzero;stroke:none"
           id="path276" />
      </g>
      <g
         id="g278"
         transform="matrix(1.0694,0,0,1.0694,-6149.9996,-2099.9999)">
        <path
           d="m 16280.6,16050.3 h -50.4 c -10.6,0 -19.2,8.6 -19.2,19.2 v 41.6 c 0,10.6 8.6,19.2 19.2,19.2 h 50.4 c 10.7,0 19.4,-8.6 19.4,-19.2 v -41.6 c 0,-10.6 -8.7,-19.2 -19.4,-19.2"
           style="fill:#ffffff;fill-opacity:1;fill-rule:nonzero;stroke:none"
           id="path280" />
      </g>
      <g
         id="g282"
         transform="matrix(1.17761,0,0,1.17761,-6149.9996,-2099.9999)">
        <path
           d="m 16269.2,14330.9 h -1031.3 c -16.9,0 -30.8,13.8 -30.8,30.8 0,17 13.9,30.9 30.8,30.9 h 1031.3 c 17,0 30.8,-13.9 30.8,-30.9 0,-17 -13.8,-30.8 -30.8,-30.8"
           style="fill:#b7e1ff;fill-opacity:1;fill-rule:nonzero;stroke:none"
           id="path284" />
      </g>
      <g
         id="g286"
         transform="matrix(1.12158,0,0,1.12158,-6149.9996,-2099.9999)">
        <path
           d="M 16267.6,14547.2 H 15185 c -17.9,0 -32.5,14.5 -32.5,32.3 0,17.9 14.6,32.4 32.5,32.4 h 1082.6 c 17.9,0 32.4,-14.5 32.4,-32.4 0,-17.8 -14.5,-32.3 -32.4,-32.3"
           style="fill:#b7e1ff;fill-opacity:1;fill-rule:nonzero;stroke:none"
           id="path288" />
      </g>
      <g
         id="g290"
         transform="matrix(1.13383,0,0,1.13383,-6149.9996,-2099.9999)">
        <path
           d="m 16289.1,14389.9 h -110.8 c -6.1,0 -10.9,4.9 -10.9,10.9 v 42.2 c 0,6 4.8,11 10.9,11 h 110.8 c 6,0 10.9,-5 10.9,-11 v -42.2 c 0,-6 -4.9,-10.9 -10.9,-10.9"
           style="fill:#b7e1ff;fill-opacity:1;fill-rule:nonzero;stroke:none"
           id="path292" />
      </g>
      <g
         id="g294"
         transform="matrix(1.14546,0,0,1.14546,-6149.9996,-2099.9999)">
        <path
           d="m 16289.1,14243.8 h -109.7 c -5.9,0 -10.8,4.9 -10.8,10.9 v 41.7 c 0,6 4.9,10.9 10.8,10.9 h 109.7 c 6,0 10.9,-4.9 10.9,-10.9 v -41.7 c 0,-6 -4.9,-10.9 -10.9,-10.9"
           style="fill:#b7e1ff;fill-opacity:1;fill-rule:nonzero;stroke:none"
           id="path296" />
      </g>
      <g
         id="g298"
         transform="matrix(1.17761,0,0,1.17761,-6149.9996,-2099.9999)">
        <path
           d="m 16279,14196.5 h -1707.6 c -11.4,0 -20.9,9.4 -20.9,20.9 0,11.5 9.5,20.9 20.9,20.9 H 16279 c 11.6,0 21,-9.4 21,-20.9 0,-11.5 -9.4,-20.9 -21,-20.9"
           style="fill:#b7e1ff;fill-opacity:1;fill-rule:nonzero;stroke:none"
           id="path300" />
      </g>
      <g
         id="g302"
         transform="matrix(1.17761,0,0,1.17761,-6149.9996,-2099.9999)">
        <path
           d="m 16279,14106.1 h -1707.6 c -11.4,0 -20.9,9.4 -20.9,20.9 0,11.6 9.5,21 20.9,21 H 16279 c 11.6,0 21,-9.4 21,-21 0,-11.5 -9.4,-20.9 -21,-20.9"
           style="fill:#b7e1ff;fill-opacity:1;fill-rule:nonzero;stroke:none"
           id="path304" />
      </g>
      <g
         id="g306"
         transform="matrix(1.21886,0,0,1.21886,-6149.9996,-2099.9999)">
        <path
           d="m 16262.2,12686 h -1917 c -20.8,0 -37.7,17 -37.7,37.8 v 824.9 c 0,20.9 16.9,37.8 37.7,37.8 h 1917 c 20.8,0 37.8,-16.9 37.8,-37.8 v -824.9 c 0,-20.8 -17,-37.8 -37.8,-37.8"
           style="fill:#9ec8ff;fill-opacity:1;fill-rule:nonzero;stroke:none"
           id="path308" />
      </g>
      <g
         id="g310"
         transform="matrix(1.21479,0,0,1.21479,-6149.9996,-2099.9999)">
        <path
           d="m 16269.4,12771 h -1828.7 c -16.9,0 -30.6,13.7 -30.6,30.6 v 562.5 c 0,16.9 13.7,30.6 30.6,30.6 h 1828.7 c 16.9,0 30.6,-13.7 30.6,-30.6 v -562.5 c 0,-16.9 -13.7,-30.6 -30.6,-30.6"
           style="fill:#ffffff;fill-opacity:1;fill-rule:nonzero;stroke:none"
           id="path312" />
      </g>
      <g
         id="g314"
         transform="matrix(1.08184,0,0,1.08184,-6149.9996,-2099.9999)">
        <path
           d="m 16281,15153.5 h -49.9 c -10.5,0 -19,8.5 -19,19 v 41.1 c 0,10.5 8.5,19 19,19 h 49.9 c 10.5,0 19,-8.5 19,-19 v -41.1 c 0,-10.5 -8.5,-19 -19,-19"
           style="fill:#ffffff;fill-opacity:1;fill-rule:nonzero;stroke:none"
           id="path316" />
      </g>
      <g
         id="g318"
         transform="matrix(1.09245,0,0,1.09245,-6149.9996,-2099.9999)">
        <path
           d="m 16281.1,15006.2 h -49.3 c -10.4,0 -18.9,8.5 -18.9,18.9 v 40.7 c 0,10.4 8.5,18.8 18.9,18.8 h 49.3 c 10.5,0 18.9,-8.4 18.9,-18.8 v -40.7 c 0,-10.4 -8.4,-18.9 -18.9,-18.9"
           style="fill:#ffffff;fill-opacity:1;fill-rule:nonzero;stroke:none"
           id="path320" />
      </g>
      <g
         id="g322"
         transform="matrix(1.10307,0,0,1.10307,-6149.9996,-2099.9999)">
        <path
           d="m 16281.3,14861.9 h -48.8 c -10.4,0 -18.7,8.3 -18.7,18.6 v 40.3 c 0,10.3 8.3,18.7 18.7,18.7 h 48.8 c 10.4,0 18.7,-8.4 18.7,-18.7 v -40.3 c 0,-10.3 -8.3,-18.6 -18.7,-18.6"
           style="fill:#ffffff;fill-opacity:1;fill-rule:nonzero;stroke:none"
           id="path324" />
      </g>
      <g
         id="g326"
         transform="matrix(1.21128,0,0,1.21128,-6149.9996,-2099.9999)">
        <path
           d="m 16269.9,13296.3 h -1002.4 c -16.6,0 -30,13.5 -30,30 0,16.5 13.4,30 30,30 h 1002.4 c 16.6,0 30.1,-13.5 30.1,-30 0,-16.5 -13.5,-30 -30.1,-30"
           style="fill:#9ec8ff;fill-opacity:1;fill-rule:nonzero;stroke:none"
           id="path328" />
      </g>
      <g
         id="g330"
         transform="matrix(1.15525,0,0,1.15525,-6149.9996,-2099.9999)">
        <path
           d="m 16268.6,13456.1 h -1051.2 c -17.3,0 -31.4,14.2 -31.4,31.5 0,17.3 14.1,31.4 31.4,31.4 h 1051.2 c 17.3,0 31.4,-14.1 31.4,-31.4 0,-17.3 -14.1,-31.5 -31.4,-31.5"
           style="fill:#9ec8ff;fill-opacity:1;fill-rule:nonzero;stroke:none"
           id="path332" />
      </g>
      <g
         id="g334"
         transform="matrix(1.1675,0,0,1.1675,-6149.9996,-2099.9999)">
        <path
           d="m 16289.4,13314.9 h -107.7 c -5.8,0 -10.6,4.7 -10.6,10.6 v 41 c 0,5.8 4.8,10.6 10.6,10.6 h 107.7 c 5.8,0 10.6,-4.8 10.6,-10.6 v -41 c 0,-5.9 -4.8,-10.6 -10.6,-10.6"
           style="fill:#9ec8ff;fill-opacity:1;fill-rule:nonzero;stroke:none"
           id="path336" />
      </g>
      <g
         id="g338"
         transform="matrix(1.17912,0,0,1.17912,-6149.9996,-2099.9999)">
        <path
           d="M 16289.5,13183.7 H 16183 c -5.9,0 -10.6,4.7 -10.6,10.5 v 40.5 c 0,5.8 4.7,10.6 10.6,10.6 h 106.5 c 5.8,0 10.5,-4.8 10.5,-10.6 v -40.5 c 0,-5.8 -4.7,-10.5 -10.5,-10.5"
           style="fill:#9ec8ff;fill-opacity:1;fill-rule:nonzero;stroke:none"
           id="path340" />
      </g>
      <g
         id="g342"
         transform="matrix(1.21128,0,0,1.21128,-6149.9996,-2099.9999)">
        <path
           d="m 16279.6,13165.7 h -1660.1 c -11.3,0 -20.4,9.1 -20.4,20.3 0,11.2 9.1,20.4 20.4,20.4 h 1660.1 c 11.2,0 20.4,-9.2 20.4,-20.4 0,-11.2 -9.2,-20.3 -20.4,-20.3"
           style="fill:#9ec8ff;fill-opacity:1;fill-rule:nonzero;stroke:none"
           id="path344" />
      </g>
      <g
         id="g346"
         transform="matrix(1.21128,0,0,1.21128,-6149.9996,-2099.9999)">
        <path
           d="m 16279.6,13077.8 h -1660.1 c -11.3,0 -20.4,9.2 -20.4,20.4 0,11.2 9.1,20.3 20.4,20.3 h 1660.1 c 11.2,0 20.4,-9.1 20.4,-20.3 0,-11.2 -9.2,-20.4 -20.4,-20.4"
           style="fill:#9ec8ff;fill-opacity:1;fill-rule:nonzero;stroke:none"
           id="path348" />
      </g>
      <g
         id="g350"
         transform="matrix(1.27186,0,0,1.27186,-6149.9996,-2099.9999)">
        <path
           d="m 16300,12368.5 c 0,-136.9 -111,-247.9 -247.9,-247.9 -136.9,0 -247.8,111 -247.8,247.9 0,136.9 110.9,247.8 247.8,247.8 136.9,0 247.9,-110.9 247.9,-247.8"
           style="fill:#9cd499;fill-opacity:1;fill-rule:nonzero;stroke:none"
           id="path352" />
      </g>
      <g
         id="g354"
         transform="matrix(1.26345,0,0,1.26345,-6149.9996,-2099.9999)">
        <path
           d="m 16134.3,12358.7 h -0.7 c -5.2,0.2 -10.1,2.5 -13.6,6.4 l -67.7,77 c -7,7.9 -6.2,19.9 1.7,26.9 7.8,6.9 19.9,6.1 26.8,-1.8 l 54.5,-61.9 130.5,127.7 c 7.5,7.3 19.5,7.2 26.8,-0.3 7.4,-7.5 7.2,-19.5 -0.2,-26.9 l -144.8,-141.7 c -3.6,-3.5 -8.3,-5.4 -13.3,-5.4"
           style="fill:#ffffff;fill-opacity:1;fill-rule:nonzero;stroke:none"
           id="path356" />
      </g>
      <g
         id="g358"
         transform="matrix(1.40151,0,0,1.40151,-6149.9996,-2099.9999)">
        <path
           d="m 16233.4,12269.2 h -1430.2 c -36.7,0 -66.7,30 -66.7,66.7 v 511 c 0,36.6 30,66.6 66.7,66.6 h 1430.2 c 36.6,0 66.6,-30 66.6,-66.6 v -511 c 0,-36.7 -30,-66.7 -66.6,-66.7"
           style="fill:#9ec8ff;fill-opacity:1;fill-rule:nonzero;stroke:none"
           id="path360" />
      </g>
      <g
         id="g362"
         transform="matrix(1.31853,0,0,1.31853,-6149.9996,-2099.9999)">
        <path
           d="m 15864.6,13144.6 v -377.8 l 435.4,435.4 c 0,0 -426.5,-57.6 -435.4,-57.6"
           style="fill:#9ec8ff;fill-opacity:1;fill-rule:nonzero;stroke:none"
           id="path364" />
      </g>
      <g
         id="g366"
         transform="matrix(1.39456,0,0,1.39456,-6149.9996,-2099.9999)">
        <path
           d="M 16243.2,12394.6 H 14948 c -31.2,0 -56.8,25.5 -56.8,56.8 v 405.5 c 0,31.2 25.6,56.8 56.8,56.8 h 1295.2 c 31.3,0 56.8,-25.6 56.8,-56.8 v -405.5 c 0,-31.3 -25.5,-56.8 -56.8,-56.8"
           style="fill:#ffffff;fill-opacity:1;fill-rule:nonzero;stroke:none"
           id="path368" />
      </g>
      <g
         id="g370"
         transform="matrix(1.34206,0,0,1.34206,-6149.9996,-2099.9999)">
        <path
           d="m 16271,13285.5 h -661.2 c -16,0 -29.1,13 -29.1,29 0,15.9 13.1,29 29.1,29 h 661.2 c 16,0 29,-13.1 29,-29 0,-16 -13,-29 -29,-29"
           style="fill:#9ec8ff;fill-opacity:1;fill-rule:nonzero;stroke:none"
           id="path372" />
      </g>
      <g
         id="g374"
         transform="matrix(1.38647,0,0,1.38647,-6149.9996,-2099.9999)">
        <path
           d="m 16284.4,12752.6 h -1187.1 c -8.6,0 -15.6,7 -15.6,15.6 v 0.3 c 0,8.6 7,15.6 15.6,15.6 h 1187.1 c 8.6,0 15.6,-7 15.6,-15.6 v -0.3 c 0,-8.6 -7,-15.6 -15.6,-15.6"
           style="fill:#9ec8ff;fill-opacity:1;fill-rule:nonzero;stroke:none"
           id="path376" />
      </g>
      <g
         id="g378"
         transform="matrix(1.38647,0,0,1.38647,-6149.9996,-2099.9999)">
        <path
           d="m 16284.4,12691.5 h -1187.1 c -8.6,0 -15.6,7 -15.6,15.6 v 0.3 c 0,8.6 7,15.6 15.6,15.6 h 1187.1 c 8.6,0 15.6,-7 15.6,-15.6 v -0.3 c 0,-8.6 -7,-15.6 -15.6,-15.6"
           style="fill:#9ec8ff;fill-opacity:1;fill-rule:nonzero;stroke:none"
           id="path380" />
      </g>
      <g
         id="g382"
         transform="matrix(1.36553,0,0,1.36553,-6149.9996,-2099.9999)">
        <path
           d="m 16284.9,12680.8 h -39.5 c -8.3,0 -15,6.8 -15,15.1 v 32.5 c 0,8.4 6.7,15.1 15,15.1 h 39.5 c 8.4,0 15.1,-6.7 15.1,-15.1 v -32.5 c 0,-8.3 -6.7,-15.1 -15.1,-15.1"
           style="fill:#9ec8ff;fill-opacity:1;fill-rule:nonzero;stroke:none"
           id="path384" />
      </g>
      <g
         id="g386"
         transform="matrix(1.37615,0,0,1.37615,-6149.9996,-2099.9999)">
        <path
           d="m 16285,12583 h -39.1 c -8.3,0 -15,6.7 -15,15 v 32.3 c 0,8.2 6.7,14.9 15,14.9 h 39.1 c 8.3,0 15,-6.7 15,-14.9 v -32.3 c 0,-8.3 -6.7,-15 -15,-15"
           style="fill:#9ec8ff;fill-opacity:1;fill-rule:nonzero;stroke:none"
           id="path388" />
      </g>
      <g
         id="g390"
         transform="matrix(1.38676,0,0,1.38676,-6149.9996,-2099.9999)">
        <path
           d="m 16285.1,12486.7 h -38.8 c -8.2,0 -14.9,6.7 -14.9,14.9 v 32 c 0,8.2 6.7,14.9 14.9,14.9 h 38.8 c 8.3,0 14.9,-6.7 14.9,-14.9 v -32 c 0,-8.2 -6.6,-14.9 -14.9,-14.9"
           style="fill:#9ec8ff;fill-opacity:1;fill-rule:nonzero;stroke:none"
           id="path392" />
      </g>
    </g>
  </g>
</svg>
